<svg width="1200" height="630" viewBox="0 0 1200 630" fill="none" xmlns="http://www.w3.org/2000/svg">
  <rect width="1200" height="630" fill="#060B17"/>
  <circle cx="188" cy="128" r="240" fill="#0284C7" fill-opacity="0.35"/>
  <circle cx="1026" cy="512" r="300" fill="#06B6D4" fill-opacity="0.22"/>
  <circle cx="684" cy="120" r="190" fill="#2563EB" fill-opacity="0.16"/>
  <rect x="72" y="72" width="1056" height="486" rx="44" fill="#0A0E1A" fill-opacity="0.82" stroke="#1B2540" stroke-width="2"/>
  <rect x="112" y="116" width="184" height="44" rx="22" fill="#0EA5E9" fill-opacity="0.14" stroke="#38BDF8" stroke-opacity="0.4"/>
  <circle cx="138" cy="138" r="8" fill="#22C55E"/>
  <text x="158" y="145" font-family="Inter, Arial, sans-serif" font-size="18" font-weight="700" fill="#E0F2FE">AI-powered</text>
  <text x="112" y="254" font-family="Inter, Arial, sans-serif" font-size="82" font-weight="800" fill="#FFFFFF">ScopeAI</text>
  <text x="112" y="334" font-family="Inter, Arial, sans-serif" font-size="52" font-weight="760" fill="#7DD3FC">Startup Idea Analyzer</text>
  <text x="112" y="404" font-family="Inter, Arial, sans-serif" font-size="30" font-weight="500" fill="#CBD5E1">Validate markets, competitors, risks, moats,</text>
  <text x="112" y="446" font-family="Inter, Arial, sans-serif" font-size="30" font-weight="500" fill="#CBD5E1">pricing signals, and pitch narratives with AI.</text>
  <rect x="112" y="492" width="240" height="48" rx="24" fill="#0EA5E9"/>
  <text x="142" y="525" font-family="Inter, Arial, sans-serif" font-size="20" font-weight="800" fill="#FFFFFF">Analyze faster</text>
  <path d="M970 164L1002 230L1074 240L1022 290L1034 362L970 328L906 362L918 290L866 240L938 230L970 164Z" fill="#38BDF8" fill-opacity="0.85"/>
  <path d="M858 384L880 430L930 438L894 472L902 522L858 498L814 522L822 472L786 438L836 430L858 384Z" fill="#2563EB" fill-opacity="0.8"/>
</svg>
